<mxfile host="app.diagrams.net" modified="2021-09-15T09:46:17.644Z" agent="5.0 (Windows NT 10.0; Win64; x64) AppleWebKit/537.36 (KHTML, like Gecko) Chrome/93.0.4577.63 Safari/537.36 Edg/93.0.961.47" etag="PZkdxQ31Vhoh7iWBlczI" version="15.2.5" type="github">
  <diagram id="_MPIVVEY6-l4T5hmw05q" name="Page-1">
    <mxGraphModel dx="2650" dy="1860" grid="1" gridSize="10" guides="1" tooltips="1" connect="1" arrows="1" fold="1" page="1" pageScale="1" pageWidth="1169" pageHeight="827" math="0" shadow="0">
      <root>
        <mxCell id="0" />
        <mxCell id="1" parent="0" />
        <mxCell id="QZ8uhwVivywwdWHPPZZo-97" value="" style="rounded=0;whiteSpace=wrap;html=1;" parent="1" vertex="1">
          <mxGeometry x="284" y="510" width="136" height="60" as="geometry" />
        </mxCell>
        <mxCell id="QZ8uhwVivywwdWHPPZZo-96" value="&lt;font style=&quot;font-size: 18px&quot;&gt;CRUD&lt;/font&gt;" style="text;html=1;strokeColor=none;fillColor=none;align=center;verticalAlign=middle;whiteSpace=wrap;rounded=0;" parent="1" vertex="1">
          <mxGeometry x="292" y="522.5" width="120" height="35" as="geometry" />
        </mxCell>
        <mxCell id="QZ8uhwVivywwdWHPPZZo-94" value="" style="rounded=0;whiteSpace=wrap;html=1;strokeColor=#000000;dashed=1;" parent="1" vertex="1">
          <mxGeometry x="420" y="-120" width="117.5" height="60" as="geometry" />
        </mxCell>
        <mxCell id="QZ8uhwVivywwdWHPPZZo-35" value="" style="rounded=1;whiteSpace=wrap;html=1;" parent="1" vertex="1">
          <mxGeometry x="185" y="57.5" width="120" height="60" as="geometry" />
        </mxCell>
        <mxCell id="QZ8uhwVivywwdWHPPZZo-1" value="" style="rounded=0;whiteSpace=wrap;html=1;" parent="1" vertex="1">
          <mxGeometry x="405" y="-330" width="360" height="40" as="geometry" />
        </mxCell>
        <mxCell id="QZ8uhwVivywwdWHPPZZo-2" value="&lt;font style=&quot;font-size: 18px&quot;&gt;User Journey&lt;/font&gt;" style="text;html=1;strokeColor=none;fillColor=none;align=center;verticalAlign=middle;whiteSpace=wrap;rounded=0;" parent="1" vertex="1">
          <mxGeometry x="440" y="-325" width="285" height="30" as="geometry" />
        </mxCell>
        <mxCell id="QZ8uhwVivywwdWHPPZZo-6" value="" style="rounded=0;whiteSpace=wrap;html=1;dashed=1;" parent="1" vertex="1">
          <mxGeometry x="525" y="57.5" width="120" height="60" as="geometry" />
        </mxCell>
        <mxCell id="QZ8uhwVivywwdWHPPZZo-7" value="&lt;font style=&quot;font-size: 18px&quot;&gt;Registration&lt;/font&gt;" style="text;html=1;strokeColor=none;fillColor=none;align=center;verticalAlign=middle;whiteSpace=wrap;rounded=0;" parent="1" vertex="1">
          <mxGeometry x="530" y="67.5" width="110" height="17.5" as="geometry" />
        </mxCell>
        <mxCell id="QZ8uhwVivywwdWHPPZZo-8" value="" style="rounded=0;whiteSpace=wrap;html=1;dashed=1;" parent="1" vertex="1">
          <mxGeometry x="720" y="57.5" width="120" height="60" as="geometry" />
        </mxCell>
        <mxCell id="QZ8uhwVivywwdWHPPZZo-9" value="&lt;font style=&quot;font-size: 18px&quot;&gt;Login&lt;br&gt;&lt;/font&gt;" style="text;html=1;strokeColor=none;fillColor=none;align=center;verticalAlign=middle;whiteSpace=wrap;rounded=0;" parent="1" vertex="1">
          <mxGeometry x="720" y="72.5" width="120" height="30" as="geometry" />
        </mxCell>
        <mxCell id="QZ8uhwVivywwdWHPPZZo-10" value="" style="rounded=0;whiteSpace=wrap;html=1;" parent="1" vertex="1">
          <mxGeometry x="530" y="250" width="135" height="120" as="geometry" />
        </mxCell>
        <mxCell id="QZ8uhwVivywwdWHPPZZo-11" value="&lt;font style=&quot;font-size: 18px&quot;&gt;Landing Page&lt;/font&gt;" style="text;html=1;strokeColor=none;fillColor=none;align=center;verticalAlign=middle;whiteSpace=wrap;rounded=0;" parent="1" vertex="1">
          <mxGeometry x="537.5" y="265" width="120" height="30" as="geometry" />
        </mxCell>
        <mxCell id="QZ8uhwVivywwdWHPPZZo-12" value="" style="rounded=1;whiteSpace=wrap;html=1;" parent="1" vertex="1">
          <mxGeometry x="320" y="57.5" width="120" height="60" as="geometry" />
        </mxCell>
        <mxCell id="QZ8uhwVivywwdWHPPZZo-14" value="&lt;font style=&quot;font-size: 18px&quot;&gt;Send To DB&lt;/font&gt;" style="text;html=1;strokeColor=none;fillColor=none;align=center;verticalAlign=middle;whiteSpace=wrap;rounded=0;" parent="1" vertex="1">
          <mxGeometry x="320" y="72.5" width="120" height="30" as="geometry" />
        </mxCell>
        <mxCell id="QZ8uhwVivywwdWHPPZZo-16" value="" style="endArrow=none;html=1;entryX=0.5;entryY=1;entryDx=0;entryDy=0;startArrow=classic;startFill=1;exitX=0.407;exitY=0;exitDx=0;exitDy=0;exitPerimeter=0;" parent="1" source="QZ8uhwVivywwdWHPPZZo-10" target="QZ8uhwVivywwdWHPPZZo-6" edge="1">
          <mxGeometry width="50" height="50" relative="1" as="geometry">
            <mxPoint x="584.52" y="241.32000000000016" as="sourcePoint" />
            <mxPoint x="584.58" y="370" as="targetPoint" />
          </mxGeometry>
        </mxCell>
        <mxCell id="QZ8uhwVivywwdWHPPZZo-17" value="" style="endArrow=none;html=1;strokeColor=#000000;exitX=1;exitY=0.5;exitDx=0;exitDy=0;" parent="1" source="QZ8uhwVivywwdWHPPZZo-14" edge="1">
          <mxGeometry width="50" height="50" relative="1" as="geometry">
            <mxPoint x="480" y="93.5" as="sourcePoint" />
            <mxPoint x="520" y="87.5" as="targetPoint" />
          </mxGeometry>
        </mxCell>
        <mxCell id="QZ8uhwVivywwdWHPPZZo-18" value="" style="endArrow=classic;html=1;strokeColor=#000000;entryX=0;entryY=0.5;entryDx=0;entryDy=0;exitX=1;exitY=0.5;exitDx=0;exitDy=0;" parent="1" source="QZ8uhwVivywwdWHPPZZo-6" target="QZ8uhwVivywwdWHPPZZo-9" edge="1">
          <mxGeometry width="50" height="50" relative="1" as="geometry">
            <mxPoint x="670" y="87.5" as="sourcePoint" />
            <mxPoint x="700" y="77.5" as="targetPoint" />
          </mxGeometry>
        </mxCell>
        <mxCell id="QZ8uhwVivywwdWHPPZZo-19" value="&lt;font style=&quot;font-size: 18px&quot;&gt;Login&lt;br&gt;&lt;/font&gt;" style="text;html=1;strokeColor=none;fillColor=none;align=center;verticalAlign=middle;whiteSpace=wrap;rounded=0;" parent="1" vertex="1">
          <mxGeometry x="555.5" y="525" width="120" height="30" as="geometry" />
        </mxCell>
        <mxCell id="QZ8uhwVivywwdWHPPZZo-20" value="" style="rounded=0;whiteSpace=wrap;html=1;" parent="1" vertex="1">
          <mxGeometry x="527.5" y="510" width="136" height="60" as="geometry" />
        </mxCell>
        <mxCell id="QZ8uhwVivywwdWHPPZZo-21" value="&lt;font style=&quot;font-size: 18px&quot;&gt;Tasks&lt;/font&gt;" style="text;html=1;strokeColor=none;fillColor=none;align=center;verticalAlign=middle;whiteSpace=wrap;rounded=0;" parent="1" vertex="1">
          <mxGeometry x="536" y="520" width="120" height="35" as="geometry" />
        </mxCell>
        <mxCell id="QZ8uhwVivywwdWHPPZZo-22" value="" style="rounded=0;whiteSpace=wrap;html=1;" parent="1" vertex="1">
          <mxGeometry x="528.5" y="650" width="135" height="60" as="geometry" />
        </mxCell>
        <mxCell id="QZ8uhwVivywwdWHPPZZo-23" value="&lt;font style=&quot;font-size: 18px&quot;&gt;View Details&lt;/font&gt;" style="text;html=1;strokeColor=none;fillColor=none;align=center;verticalAlign=middle;whiteSpace=wrap;rounded=0;" parent="1" vertex="1">
          <mxGeometry x="535.5" y="662.5" width="120" height="35" as="geometry" />
        </mxCell>
        <mxCell id="QZ8uhwVivywwdWHPPZZo-24" value="" style="rounded=0;whiteSpace=wrap;html=1;" parent="1" vertex="1">
          <mxGeometry x="764.5" y="650" width="135" height="60" as="geometry" />
        </mxCell>
        <mxCell id="QZ8uhwVivywwdWHPPZZo-25" value="&lt;font style=&quot;font-size: 18px&quot;&gt;Mark Complete&lt;/font&gt;" style="text;html=1;strokeColor=none;fillColor=none;align=center;verticalAlign=middle;whiteSpace=wrap;rounded=0;" parent="1" vertex="1">
          <mxGeometry x="764.5" y="662.5" width="133" height="35" as="geometry" />
        </mxCell>
        <mxCell id="QZ8uhwVivywwdWHPPZZo-26" value="" style="endArrow=classic;html=1;strokeColor=#000000;exitX=0.5;exitY=0;exitDx=0;exitDy=0;entryX=0.75;entryY=0;entryDx=0;entryDy=0;" parent="1" source="QZ8uhwVivywwdWHPPZZo-24" target="QZ8uhwVivywwdWHPPZZo-20" edge="1">
          <mxGeometry width="50" height="50" relative="1" as="geometry">
            <mxPoint x="653.5" y="490" as="sourcePoint" />
            <mxPoint x="703.5" y="440" as="targetPoint" />
            <Array as="points">
              <mxPoint x="832" y="480" />
              <mxPoint x="630" y="480" />
            </Array>
          </mxGeometry>
        </mxCell>
        <mxCell id="QZ8uhwVivywwdWHPPZZo-28" value="" style="endArrow=none;html=1;entryX=0.5;entryY=1;entryDx=0;entryDy=0;startArrow=classic;startFill=1;" parent="1" target="QZ8uhwVivywwdWHPPZZo-20" edge="1">
          <mxGeometry width="50" height="50" relative="1" as="geometry">
            <mxPoint x="595.5" y="650" as="sourcePoint" />
            <mxPoint x="595.21" y="582.5" as="targetPoint" />
          </mxGeometry>
        </mxCell>
        <mxCell id="QZ8uhwVivywwdWHPPZZo-29" value="" style="endArrow=none;html=1;entryX=1;entryY=0.5;entryDx=0;entryDy=0;startArrow=classic;startFill=1;exitX=0;exitY=0.5;exitDx=0;exitDy=0;" parent="1" source="QZ8uhwVivywwdWHPPZZo-25" target="QZ8uhwVivywwdWHPPZZo-22" edge="1">
          <mxGeometry width="50" height="50" relative="1" as="geometry">
            <mxPoint x="703.4999999999998" y="839.9999999999998" as="sourcePoint" />
            <mxPoint x="703.5000000000002" y="760.0000000000002" as="targetPoint" />
          </mxGeometry>
        </mxCell>
        <mxCell id="QZ8uhwVivywwdWHPPZZo-33" value="" style="endArrow=classic;html=1;strokeColor=#000000;exitX=0.5;exitY=1;exitDx=0;exitDy=0;entryX=0.684;entryY=0;entryDx=0;entryDy=0;entryPerimeter=0;" parent="1" source="QZ8uhwVivywwdWHPPZZo-8" target="QZ8uhwVivywwdWHPPZZo-10" edge="1">
          <mxGeometry width="50" height="50" relative="1" as="geometry">
            <mxPoint x="791" y="440" as="sourcePoint" />
            <mxPoint x="624.4800000000005" y="238.86000000000013" as="targetPoint" />
            <Array as="points">
              <mxPoint x="780" y="200" />
              <mxPoint x="720" y="200" />
              <mxPoint x="622" y="200" />
            </Array>
          </mxGeometry>
        </mxCell>
        <mxCell id="QZ8uhwVivywwdWHPPZZo-34" value="user name saved&lt;br&gt;character gets made" style="text;html=1;strokeColor=none;fillColor=none;align=center;verticalAlign=middle;whiteSpace=wrap;rounded=0;" parent="1" vertex="1">
          <mxGeometry x="170" y="52.5" width="150" height="70" as="geometry" />
        </mxCell>
        <mxCell id="QZ8uhwVivywwdWHPPZZo-40" value="" style="rounded=1;whiteSpace=wrap;html=1;" parent="1" vertex="1">
          <mxGeometry x="140" y="-180" width="120" height="60" as="geometry" />
        </mxCell>
        <mxCell id="QZ8uhwVivywwdWHPPZZo-41" value="conditional, &lt;br&gt;if first login:" style="text;html=1;strokeColor=none;fillColor=none;align=center;verticalAlign=middle;whiteSpace=wrap;rounded=0;" parent="1" vertex="1">
          <mxGeometry x="155" y="-172.5" width="90" height="45" as="geometry" />
        </mxCell>
        <mxCell id="QZ8uhwVivywwdWHPPZZo-43" value="" style="rounded=1;whiteSpace=wrap;html=1;" parent="1" vertex="1">
          <mxGeometry x="140" y="-70" width="120" height="60" as="geometry" />
        </mxCell>
        <mxCell id="QZ8uhwVivywwdWHPPZZo-44" value="" style="endArrow=none;html=1;strokeColor=#000000;exitX=0.5;exitY=1;exitDx=0;exitDy=0;entryX=0.5;entryY=0;entryDx=0;entryDy=0;" parent="1" source="QZ8uhwVivywwdWHPPZZo-40" target="QZ8uhwVivywwdWHPPZZo-43" edge="1">
          <mxGeometry width="50" height="50" relative="1" as="geometry">
            <mxPoint x="200" y="-110" as="sourcePoint" />
            <mxPoint x="495" y="-30" as="targetPoint" />
          </mxGeometry>
        </mxCell>
        <mxCell id="QZ8uhwVivywwdWHPPZZo-45" value="check with back&lt;br&gt;end" style="text;html=1;strokeColor=none;fillColor=none;align=center;verticalAlign=middle;whiteSpace=wrap;rounded=0;" parent="1" vertex="1">
          <mxGeometry x="155" y="-62.5" width="90" height="45" as="geometry" />
        </mxCell>
        <mxCell id="QZ8uhwVivywwdWHPPZZo-49" value="" style="rounded=1;whiteSpace=wrap;html=1;" parent="1" vertex="1">
          <mxGeometry x="990" y="-47.5" width="120" height="60" as="geometry" />
        </mxCell>
        <mxCell id="QZ8uhwVivywwdWHPPZZo-54" value="condition" style="text;html=1;strokeColor=none;fillColor=none;align=center;verticalAlign=middle;whiteSpace=wrap;rounded=0;" parent="1" vertex="1">
          <mxGeometry x="1030" y="-27.5" width="40" height="20" as="geometry" />
        </mxCell>
        <mxCell id="QZ8uhwVivywwdWHPPZZo-55" value="show the quote" style="text;html=1;strokeColor=none;fillColor=none;align=center;verticalAlign=middle;whiteSpace=wrap;rounded=0;" parent="1" vertex="1">
          <mxGeometry x="547.5" y="302.5" width="100" height="47.5" as="geometry" />
        </mxCell>
        <mxCell id="QZ8uhwVivywwdWHPPZZo-56" value="" style="rounded=0;whiteSpace=wrap;html=1;" parent="1" vertex="1">
          <mxGeometry x="640" y="-120" width="120" height="60" as="geometry" />
        </mxCell>
        <mxCell id="QZ8uhwVivywwdWHPPZZo-57" value="&lt;font style=&quot;font-size: 14px&quot;&gt;How do you feel?&lt;/font&gt;" style="text;html=1;strokeColor=none;fillColor=none;align=center;verticalAlign=middle;whiteSpace=wrap;rounded=0;" parent="1" vertex="1">
          <mxGeometry x="640" y="-105" width="120" height="30" as="geometry" />
        </mxCell>
        <mxCell id="QZ8uhwVivywwdWHPPZZo-65" value="" style="rounded=1;whiteSpace=wrap;html=1;" parent="1" vertex="1">
          <mxGeometry x="1280" y="77.5" width="100" height="35" as="geometry" />
        </mxCell>
        <mxCell id="QZ8uhwVivywwdWHPPZZo-66" value="Get Help" style="text;html=1;strokeColor=none;fillColor=none;align=center;verticalAlign=middle;whiteSpace=wrap;rounded=0;" parent="1" vertex="1">
          <mxGeometry x="1290" y="85" width="80" height="20" as="geometry" />
        </mxCell>
        <mxCell id="QZ8uhwVivywwdWHPPZZo-79" value="Intro to app" style="text;html=1;strokeColor=none;fillColor=none;align=center;verticalAlign=middle;whiteSpace=wrap;rounded=0;" parent="1" vertex="1">
          <mxGeometry x="427.5" y="-100" width="100" height="20" as="geometry" />
        </mxCell>
        <mxCell id="QZ8uhwVivywwdWHPPZZo-80" value="" style="endArrow=classic;html=1;strokeColor=#000000;exitX=0.5;exitY=1;exitDx=0;exitDy=0;entryX=0.5;entryY=0;entryDx=0;entryDy=0;" parent="1" source="QZ8uhwVivywwdWHPPZZo-56" target="QZ8uhwVivywwdWHPPZZo-6" edge="1">
          <mxGeometry width="50" height="50" relative="1" as="geometry">
            <mxPoint x="580" y="140" as="sourcePoint" />
            <mxPoint x="630" y="90" as="targetPoint" />
          </mxGeometry>
        </mxCell>
        <mxCell id="QZ8uhwVivywwdWHPPZZo-81" value="" style="endArrow=classic;html=1;strokeColor=#000000;exitX=0.483;exitY=1.054;exitDx=0;exitDy=0;exitPerimeter=0;entryX=0.5;entryY=0;entryDx=0;entryDy=0;" parent="1" source="QZ8uhwVivywwdWHPPZZo-1" edge="1">
          <mxGeometry width="50" height="50" relative="1" as="geometry">
            <mxPoint x="581" y="-170" as="sourcePoint" />
            <mxPoint x="480" y="-120" as="targetPoint" />
          </mxGeometry>
        </mxCell>
        <mxCell id="QZ8uhwVivywwdWHPPZZo-82" value="" style="endArrow=classic;html=1;strokeColor=#000000;exitX=0.5;exitY=1;exitDx=0;exitDy=0;entryX=0.5;entryY=0;entryDx=0;entryDy=0;" parent="1" source="QZ8uhwVivywwdWHPPZZo-1" target="QZ8uhwVivywwdWHPPZZo-56" edge="1">
          <mxGeometry width="50" height="50" relative="1" as="geometry">
            <mxPoint x="588.8800000000001" y="-277.8399999999999" as="sourcePoint" />
            <mxPoint x="670" y="-170" as="targetPoint" />
          </mxGeometry>
        </mxCell>
        <mxCell id="QZ8uhwVivywwdWHPPZZo-83" value="" style="endArrow=classic;html=1;strokeColor=#000000;exitX=1;exitY=0.5;exitDx=0;exitDy=0;entryX=0;entryY=0.5;entryDx=0;entryDy=0;" parent="1" target="QZ8uhwVivywwdWHPPZZo-57" edge="1">
          <mxGeometry width="50" height="50" relative="1" as="geometry">
            <mxPoint x="540" y="-90" as="sourcePoint" />
            <mxPoint x="730" y="80" as="targetPoint" />
          </mxGeometry>
        </mxCell>
        <mxCell id="QZ8uhwVivywwdWHPPZZo-84" value="" style="endArrow=none;dashed=1;html=1;strokeColor=#000000;exitX=1;exitY=1;exitDx=0;exitDy=0;entryX=0;entryY=0.5;entryDx=0;entryDy=0;" parent="1" source="QZ8uhwVivywwdWHPPZZo-56" target="QZ8uhwVivywwdWHPPZZo-49" edge="1">
          <mxGeometry width="50" height="50" relative="1" as="geometry">
            <mxPoint x="800" y="50" as="sourcePoint" />
            <mxPoint x="850" as="targetPoint" />
            <Array as="points">
              <mxPoint x="820" y="-17" />
            </Array>
          </mxGeometry>
        </mxCell>
        <mxCell id="QZ8uhwVivywwdWHPPZZo-86" value="" style="rounded=1;whiteSpace=wrap;html=1;strokeColor=#000000;" parent="1" vertex="1">
          <mxGeometry x="1270" y="-47.5" width="120" height="60" as="geometry" />
        </mxCell>
        <mxCell id="QZ8uhwVivywwdWHPPZZo-87" value="woudl you like to assistance?" style="text;html=1;strokeColor=none;fillColor=none;align=center;verticalAlign=middle;whiteSpace=wrap;rounded=0;" parent="1" vertex="1">
          <mxGeometry x="1275" y="-32.5" width="110" height="30" as="geometry" />
        </mxCell>
        <mxCell id="QZ8uhwVivywwdWHPPZZo-89" value="" style="endArrow=none;dashed=1;html=1;strokeColor=#000000;exitX=1;exitY=0.5;exitDx=0;exitDy=0;entryX=0;entryY=0.5;entryDx=0;entryDy=0;" parent="1" source="QZ8uhwVivywwdWHPPZZo-49" target="QZ8uhwVivywwdWHPPZZo-86" edge="1">
          <mxGeometry width="50" height="50" relative="1" as="geometry">
            <mxPoint x="1080" y="60" as="sourcePoint" />
            <mxPoint x="1130" y="10" as="targetPoint" />
          </mxGeometry>
        </mxCell>
        <mxCell id="QZ8uhwVivywwdWHPPZZo-90" value="" style="endArrow=none;dashed=1;html=1;strokeColor=#000000;exitX=0.5;exitY=1;exitDx=0;exitDy=0;entryX=0.5;entryY=0;entryDx=0;entryDy=0;" parent="1" source="QZ8uhwVivywwdWHPPZZo-86" target="QZ8uhwVivywwdWHPPZZo-65" edge="1">
          <mxGeometry width="50" height="50" relative="1" as="geometry">
            <mxPoint x="1080" y="60" as="sourcePoint" />
            <mxPoint x="1130" y="10" as="targetPoint" />
          </mxGeometry>
        </mxCell>
        <mxCell id="QZ8uhwVivywwdWHPPZZo-92" value="Character Name" style="text;html=1;strokeColor=none;fillColor=none;align=center;verticalAlign=middle;whiteSpace=wrap;rounded=0;" parent="1" vertex="1">
          <mxGeometry x="535" y="85" width="100" height="20" as="geometry" />
        </mxCell>
        <mxCell id="QZ8uhwVivywwdWHPPZZo-93" value="" style="endArrow=classic;html=1;strokeColor=#000000;exitX=0.5;exitY=1;exitDx=0;exitDy=0;" parent="1" source="QZ8uhwVivywwdWHPPZZo-10" edge="1">
          <mxGeometry width="50" height="50" relative="1" as="geometry">
            <mxPoint x="720" y="460" as="sourcePoint" />
            <mxPoint x="596" y="508" as="targetPoint" />
          </mxGeometry>
        </mxCell>
        <mxCell id="QZ8uhwVivywwdWHPPZZo-95" value="" style="endArrow=none;dashed=1;html=1;strokeColor=#000000;entryX=0;entryY=1;entryDx=0;entryDy=0;exitX=1;exitY=0.5;exitDx=0;exitDy=0;" parent="1" source="QZ8uhwVivywwdWHPPZZo-40" target="QZ8uhwVivywwdWHPPZZo-56" edge="1">
          <mxGeometry width="50" height="50" relative="1" as="geometry">
            <mxPoint x="680" y="60" as="sourcePoint" />
            <mxPoint x="730" y="10" as="targetPoint" />
            <Array as="points">
              <mxPoint x="370" y="-150" />
              <mxPoint x="370" y="-10" />
              <mxPoint x="570" y="-10" />
            </Array>
          </mxGeometry>
        </mxCell>
        <mxCell id="QZ8uhwVivywwdWHPPZZo-98" value="" style="endArrow=classic;html=1;strokeColor=#000000;exitX=0;exitY=0.5;exitDx=0;exitDy=0;entryX=1;entryY=0.5;entryDx=0;entryDy=0;" parent="1" source="QZ8uhwVivywwdWHPPZZo-20" target="QZ8uhwVivywwdWHPPZZo-97" edge="1">
          <mxGeometry width="50" height="50" relative="1" as="geometry">
            <mxPoint x="440" y="540" as="sourcePoint" />
            <mxPoint x="490" y="490" as="targetPoint" />
          </mxGeometry>
        </mxCell>
        <mxCell id="QZ8uhwVivywwdWHPPZZo-99" value="" style="endArrow=classic;html=1;strokeColor=#000000;exitX=0.5;exitY=0;exitDx=0;exitDy=0;entryX=0.25;entryY=0;entryDx=0;entryDy=0;" parent="1" source="QZ8uhwVivywwdWHPPZZo-97" target="QZ8uhwVivywwdWHPPZZo-20" edge="1">
          <mxGeometry width="50" height="50" relative="1" as="geometry">
            <mxPoint x="440" y="540" as="sourcePoint" />
            <mxPoint x="540" y="500" as="targetPoint" />
            <Array as="points">
              <mxPoint x="352" y="480" />
              <mxPoint x="562" y="480" />
            </Array>
          </mxGeometry>
        </mxCell>
        <mxCell id="QZ8uhwVivywwdWHPPZZo-101" value="" style="endArrow=none;dashed=1;html=1;dashPattern=1 3;strokeWidth=2;entryX=0.25;entryY=1;entryDx=0;entryDy=0;exitX=1;exitY=0.5;exitDx=0;exitDy=0;" parent="1" source="QZ8uhwVivywwdWHPPZZo-105" target="QZ8uhwVivywwdWHPPZZo-20" edge="1">
          <mxGeometry width="50" height="50" relative="1" as="geometry">
            <mxPoint x="100" y="570" as="sourcePoint" />
            <mxPoint x="430" y="550" as="targetPoint" />
            <Array as="points">
              <mxPoint x="-10" y="600" />
              <mxPoint x="150" y="600" />
              <mxPoint x="562" y="600" />
            </Array>
          </mxGeometry>
        </mxCell>
        <mxCell id="QZ8uhwVivywwdWHPPZZo-102" value="Task" style="swimlane;fontStyle=0;childLayout=stackLayout;horizontal=1;startSize=26;horizontalStack=0;resizeParent=1;resizeParentMax=0;resizeLast=0;collapsible=1;marginBottom=0;strokeColor=#000000;" parent="1" vertex="1">
          <mxGeometry x="-220" y="506" width="140" height="170" as="geometry" />
        </mxCell>
        <mxCell id="QZ8uhwVivywwdWHPPZZo-103" value="str: name" style="text;strokeColor=none;fillColor=none;align=left;verticalAlign=top;spacingLeft=4;spacingRight=4;overflow=hidden;rotatable=0;points=[[0,0.5],[1,0.5]];portConstraint=eastwest;" parent="QZ8uhwVivywwdWHPPZZo-102" vertex="1">
          <mxGeometry y="26" width="140" height="26" as="geometry" />
        </mxCell>
        <mxCell id="QZ8uhwVivywwdWHPPZZo-104" value="str: desc " style="text;strokeColor=none;fillColor=none;align=left;verticalAlign=top;spacingLeft=4;spacingRight=4;overflow=hidden;rotatable=0;points=[[0,0.5],[1,0.5]];portConstraint=eastwest;" parent="QZ8uhwVivywwdWHPPZZo-102" vertex="1">
          <mxGeometry y="52" width="140" height="28" as="geometry" />
        </mxCell>
        <mxCell id="QZ8uhwVivywwdWHPPZZo-105" value="bool: complete" style="text;strokeColor=none;fillColor=none;align=left;verticalAlign=top;spacingLeft=4;spacingRight=4;overflow=hidden;rotatable=0;points=[[0,0.5],[1,0.5]];portConstraint=eastwest;" parent="QZ8uhwVivywwdWHPPZZo-102" vertex="1">
          <mxGeometry y="80" width="140" height="30" as="geometry" />
        </mxCell>
        <mxCell id="QZ8uhwVivywwdWHPPZZo-106" value="date_completed" style="text;strokeColor=none;fillColor=none;align=left;verticalAlign=top;spacingLeft=4;spacingRight=4;overflow=hidden;rotatable=0;points=[[0,0.5],[1,0.5]];portConstraint=eastwest;" parent="QZ8uhwVivywwdWHPPZZo-102" vertex="1">
          <mxGeometry y="110" width="140" height="26" as="geometry" />
        </mxCell>
        <mxCell id="QZ8uhwVivywwdWHPPZZo-107" value="recurring?&#xa;how often?" style="text;strokeColor=none;fillColor=none;align=left;verticalAlign=top;spacingLeft=4;spacingRight=4;overflow=hidden;rotatable=0;points=[[0,0.5],[1,0.5]];portConstraint=eastwest;" parent="QZ8uhwVivywwdWHPPZZo-102" vertex="1">
          <mxGeometry y="136" width="140" height="34" as="geometry" />
        </mxCell>
        <mxCell id="QZ8uhwVivywwdWHPPZZo-109" value="" style="rounded=0;whiteSpace=wrap;html=1;strokeColor=#000000;" parent="1" vertex="1">
          <mxGeometry x="-490" y="453.75" width="180" height="230" as="geometry" />
        </mxCell>
        <mxCell id="QZ8uhwVivywwdWHPPZZo-110" value="{&lt;br&gt;&quot;name&quot; : &quot;blaclklasdfj&quot;,&lt;br&gt;&quot;desc&quot; : &quot;appagendo mate&quot;,&lt;br&gt;&quot;recurring&quot;: True/False,&lt;br&gt;&quot;cadence&quot;: {&lt;br&gt;&lt;span style=&quot;white-space: pre&quot;&gt; &lt;/span&gt;&lt;span style=&quot;white-space: pre&quot;&gt; &lt;/span&gt;&lt;span style=&quot;white-space: pre&quot;&gt; &lt;/span&gt;&quot;interval&quot;: &lt;span style=&quot;white-space: pre&quot;&gt; &lt;/span&gt;&lt;span style=&quot;white-space: pre&quot;&gt; &lt;/span&gt;&lt;span style=&quot;white-space: pre&quot;&gt; &lt;/span&gt;&quot;day&quot;/&quot;week&quot;,&lt;br&gt;&lt;span style=&quot;white-space: pre&quot;&gt; &lt;/span&gt;&lt;span style=&quot;white-space: pre&quot;&gt; &lt;/span&gt;&lt;span style=&quot;white-space: pre&quot;&gt; &lt;/span&gt;&quot;number&quot;: 1/2/3&lt;br&gt;&lt;span style=&quot;white-space: pre&quot;&gt; &lt;/span&gt;&lt;span style=&quot;white-space: pre&quot;&gt; &lt;/span&gt;&lt;span style=&quot;white-space: pre&quot;&gt; &lt;/span&gt;},&lt;br&gt;&lt;br&gt;&quot;complete&quot; : True/False,&lt;br&gt;&quot;date-complete&quot;: DATE&lt;br&gt;}." style="text;html=1;strokeColor=none;fillColor=none;align=left;verticalAlign=top;whiteSpace=wrap;rounded=0;" parent="1" vertex="1">
          <mxGeometry x="-489.5" y="452.5" width="180" height="210" as="geometry" />
        </mxCell>
        <mxCell id="QZ8uhwVivywwdWHPPZZo-117" value="Task" style="text;html=1;strokeColor=none;fillColor=none;align=center;verticalAlign=middle;whiteSpace=wrap;rounded=0;" parent="1" vertex="1">
          <mxGeometry x="-430" y="423.75" width="40" height="20" as="geometry" />
        </mxCell>
        <mxCell id="QZ8uhwVivywwdWHPPZZo-120" value="" style="rounded=0;whiteSpace=wrap;html=1;strokeColor=#000000;verticalAlign=top;" parent="1" vertex="1">
          <mxGeometry x="-460" y="-31.870000000000005" width="180" height="216.25" as="geometry" />
        </mxCell>
        <mxCell id="QZ8uhwVivywwdWHPPZZo-121" value="Levels&lt;br&gt;&amp;nbsp;x pts&lt;br&gt;&lt;br&gt;20% increment of previous&lt;br&gt;&lt;br&gt;take in current level, apply the differential, return the next level&lt;br&gt;&lt;br&gt;Task&lt;br&gt;10pts" style="text;html=1;strokeColor=none;fillColor=none;align=left;verticalAlign=top;whiteSpace=wrap;rounded=0;horizontal=1;" parent="1" vertex="1">
          <mxGeometry x="-460" y="-31.870000000000005" width="170" height="206.25" as="geometry" />
        </mxCell>
        <mxCell id="QZ8uhwVivywwdWHPPZZo-122" value="" style="rounded=0;whiteSpace=wrap;html=1;strokeColor=#000000;verticalAlign=top;" parent="1" vertex="1">
          <mxGeometry x="-850" y="162.5" width="240" height="217.5" as="geometry" />
        </mxCell>
        <mxCell id="QZ8uhwVivywwdWHPPZZo-123" value="Character" style="text;html=1;strokeColor=none;fillColor=none;align=center;verticalAlign=middle;whiteSpace=wrap;rounded=0;" parent="1" vertex="1">
          <mxGeometry x="-785" y="132.5" width="110" height="20" as="geometry" />
        </mxCell>
        <mxCell id="QZ8uhwVivywwdWHPPZZo-124" value="{&lt;br&gt;&quot;name&quot;: str,&lt;br&gt;&quot;level&quot;: int,&lt;br&gt;&quot;current-xp&quot;: int,&lt;br&gt;&quot;level-max&quot;: int,&lt;br&gt;&quot;health&quot;: int,&lt;br&gt;&quot;stamina&quot;: int,&lt;br&gt;&lt;br&gt;&quot;history&quot;: {&amp;lt;Task History&amp;gt;}&lt;br&gt;}" style="text;html=1;strokeColor=none;fillColor=none;align=left;verticalAlign=top;whiteSpace=wrap;rounded=0;" parent="1" vertex="1">
          <mxGeometry x="-850" y="167.5" width="230" height="222.5" as="geometry" />
        </mxCell>
        <mxCell id="QZ8uhwVivywwdWHPPZZo-125" value="" style="endArrow=classic;html=1;strokeColor=#000000;exitX=0.25;exitY=0;exitDx=0;exitDy=0;" parent="1" source="QZ8uhwVivywwdWHPPZZo-110" edge="1">
          <mxGeometry width="50" height="50" relative="1" as="geometry">
            <mxPoint x="-480" y="350" as="sourcePoint" />
            <mxPoint x="-600" y="290" as="targetPoint" />
          </mxGeometry>
        </mxCell>
        <mxCell id="DAhuvzgaOgEqO4mDOx3Q-1" value="Character" style="swimlane;fontStyle=0;childLayout=stackLayout;horizontal=1;startSize=26;horizontalStack=0;resizeParent=1;resizeParentMax=0;resizeLast=0;collapsible=1;marginBottom=0;" vertex="1" parent="1">
          <mxGeometry x="-190" y="-295" width="170" height="182" as="geometry" />
        </mxCell>
        <mxCell id="DAhuvzgaOgEqO4mDOx3Q-2" value="name: String   " style="text;strokeColor=none;fillColor=none;align=left;verticalAlign=top;spacingLeft=4;spacingRight=4;overflow=hidden;rotatable=0;points=[[0,0.5],[1,0.5]];portConstraint=eastwest;" vertex="1" parent="DAhuvzgaOgEqO4mDOx3Q-1">
          <mxGeometry y="26" width="170" height="26" as="geometry" />
        </mxCell>
        <mxCell id="DAhuvzgaOgEqO4mDOx3Q-3" value="level: int" style="text;strokeColor=none;fillColor=none;align=left;verticalAlign=top;spacingLeft=4;spacingRight=4;overflow=hidden;rotatable=0;points=[[0,0.5],[1,0.5]];portConstraint=eastwest;" vertex="1" parent="DAhuvzgaOgEqO4mDOx3Q-1">
          <mxGeometry y="52" width="170" height="26" as="geometry" />
        </mxCell>
        <mxCell id="DAhuvzgaOgEqO4mDOx3Q-4" value="current-XP: int" style="text;strokeColor=none;fillColor=none;align=left;verticalAlign=top;spacingLeft=4;spacingRight=4;overflow=hidden;rotatable=0;points=[[0,0.5],[1,0.5]];portConstraint=eastwest;" vertex="1" parent="DAhuvzgaOgEqO4mDOx3Q-1">
          <mxGeometry y="78" width="170" height="26" as="geometry" />
        </mxCell>
        <mxCell id="DAhuvzgaOgEqO4mDOx3Q-5" value="xp-to-next-lvl: int" style="text;strokeColor=none;fillColor=none;align=left;verticalAlign=top;spacingLeft=4;spacingRight=4;overflow=hidden;rotatable=0;points=[[0,0.5],[1,0.5]];portConstraint=eastwest;" vertex="1" parent="DAhuvzgaOgEqO4mDOx3Q-1">
          <mxGeometry y="104" width="170" height="26" as="geometry" />
        </mxCell>
        <mxCell id="DAhuvzgaOgEqO4mDOx3Q-6" value="health: int" style="text;strokeColor=none;fillColor=none;align=left;verticalAlign=top;spacingLeft=4;spacingRight=4;overflow=hidden;rotatable=0;points=[[0,0.5],[1,0.5]];portConstraint=eastwest;" vertex="1" parent="DAhuvzgaOgEqO4mDOx3Q-1">
          <mxGeometry y="130" width="170" height="26" as="geometry" />
        </mxCell>
        <mxCell id="DAhuvzgaOgEqO4mDOx3Q-7" value="tasks: &lt;ArrayList&gt;" style="text;strokeColor=none;fillColor=none;align=left;verticalAlign=top;spacingLeft=4;spacingRight=4;overflow=hidden;rotatable=0;points=[[0,0.5],[1,0.5]];portConstraint=eastwest;" vertex="1" parent="DAhuvzgaOgEqO4mDOx3Q-1">
          <mxGeometry y="156" width="170" height="26" as="geometry" />
        </mxCell>
        <mxCell id="DAhuvzgaOgEqO4mDOx3Q-8" value="Task" style="swimlane;fontStyle=0;childLayout=stackLayout;horizontal=1;startSize=26;horizontalStack=0;resizeParent=1;resizeParentMax=0;resizeLast=0;collapsible=1;marginBottom=0;" vertex="1" parent="1">
          <mxGeometry x="-190" y="-75" width="170" height="104" as="geometry" />
        </mxCell>
        <mxCell id="DAhuvzgaOgEqO4mDOx3Q-9" value="name: str" style="text;strokeColor=none;fillColor=none;align=left;verticalAlign=top;spacingLeft=4;spacingRight=4;overflow=hidden;rotatable=0;points=[[0,0.5],[1,0.5]];portConstraint=eastwest;" vertex="1" parent="DAhuvzgaOgEqO4mDOx3Q-8">
          <mxGeometry y="26" width="170" height="26" as="geometry" />
        </mxCell>
        <mxCell id="DAhuvzgaOgEqO4mDOx3Q-10" value="desc: Str" style="text;strokeColor=none;fillColor=none;align=left;verticalAlign=top;spacingLeft=4;spacingRight=4;overflow=hidden;rotatable=0;points=[[0,0.5],[1,0.5]];portConstraint=eastwest;" vertex="1" parent="DAhuvzgaOgEqO4mDOx3Q-8">
          <mxGeometry y="52" width="170" height="26" as="geometry" />
        </mxCell>
        <mxCell id="DAhuvzgaOgEqO4mDOx3Q-13" value="complete: bool" style="text;strokeColor=none;fillColor=none;align=left;verticalAlign=top;spacingLeft=4;spacingRight=4;overflow=hidden;rotatable=0;points=[[0,0.5],[1,0.5]];portConstraint=eastwest;" vertex="1" parent="DAhuvzgaOgEqO4mDOx3Q-8">
          <mxGeometry y="78" width="170" height="26" as="geometry" />
        </mxCell>
      </root>
    </mxGraphModel>
  </diagram>
</mxfile>
